<svg xmlns="http://www.w3.org/2000/svg" version="1.1" xmlns:xlink="http://www.w3.org/1999/xlink" xmlns:svgjs="http://svgjs.dev/svgjs" width="1000" height="1000"><g clip-path="url(#SvgjsClipPath1259)"><rect width="1000" height="1000" fill="#000000"></rect><g transform="matrix(17.073170731707318,0,0,17.073170731707318,150,150)"><svg xmlns="http://www.w3.org/2000/svg" version="1.1" xmlns:xlink="http://www.w3.org/1999/xlink" xmlns:svgjs="http://svgjs.dev/svgjs" width="41" height="41"><svg width="41" height="41" viewBox="0 0 41 41" fill="none" xmlns="http://www.w3.org/2000/svg">
<path d="M39.5358 28.1971V32.2116H26.2402V28.1971H39.5358ZM27.9214 7.23297V32.2116H22.7748V7.23297H27.9214ZM37.8031 17.4062V21.3178H26.2402V17.4062H37.8031ZM39.5187 7.23297V11.2645H26.2402V7.23297H39.5187Z" fill="white"></path>
<path fill-rule="evenodd" clip-rule="evenodd" d="M20.3558 7.23297H22.0085V14.7202L15.6895 32.2116H12.1897L5.43296 13.5084L5.94509 25.1092V32.2116H0.815552V7.23297H3.16587H5.15592H7.5234L13.9396 25.5723L20.3558 7.23297Z" fill="white"></path>
</svg></svg></g></g><defs><clipPath id="SvgjsClipPath1259"><rect width="1000" height="1000" x="0" y="0" rx="250" ry="250"></rect></clipPath></defs></svg>